<svg width="600" height="500" viewBox="0 0 600 500" fill="none" xmlns="http://www.w3.org/2000/svg">
<g clip-path="url(#clip0_15_2)">
<line y1="421.5" x2="600" y2="421.5" stroke="#00FF00" stroke-opacity="0.3"/>
<rect x="165.5" y="466.5" width="68" height="54" stroke="#00FF00" stroke-opacity="0.3"/>
<rect x="365.5" y="466.5" width="68" height="54" stroke="#00FF00" stroke-opacity="0.3"/>
<line x1="-1.75913" y1="527.052" x2="104.307" y2="420.986" stroke="#00FF00" stroke-opacity="0.1"/>
<line x1="-51.7591" y1="527.052" x2="54.3069" y2="420.986" stroke="#00FF00" stroke-opacity="0.1"/>
<line x1="48.2409" y1="527.052" x2="154.307" y2="420.986" stroke="#00FF00" stroke-opacity="0.1"/>
<line x1="98.2409" y1="527.052" x2="204.307" y2="420.986" stroke="#00FF00" stroke-opacity="0.1"/>
<line x1="209.307" y1="465.986" x2="254.307" y2="420.986" stroke="#00FF00" stroke-opacity="0.1"/>
<line x1="233.307" y1="491.986" x2="304.307" y2="420.986" stroke="#00FF00" stroke-opacity="0.1"/>
<line x1="272.307" y1="502.986" x2="354.307" y2="420.986" stroke="#00FF00" stroke-opacity="0.1"/>
<line x1="298.241" y1="527.052" x2="404.307" y2="420.986" stroke="#00FF00" stroke-opacity="0.1"/>
<line x1="409.307" y1="465.986" x2="454.307" y2="420.986" stroke="#00FF00" stroke-opacity="0.1"/>
<line x1="433.307" y1="491.986" x2="504.307" y2="420.986" stroke="#00FF00" stroke-opacity="0.1"/>
<line x1="448.241" y1="527.052" x2="554.307" y2="420.986" stroke="#00FF00" stroke-opacity="0.1"/>
<line x1="447.646" y1="527.712" x2="553.712" y2="421.646" stroke="#00FF00" stroke-opacity="0.1"/>
<line x1="497.646" y1="527.712" x2="603.712" y2="421.646" stroke="#00FF00" stroke-opacity="0.1"/>
<line x1="547.646" y1="527.712" x2="653.712" y2="421.646" stroke="#00FF00" stroke-opacity="0.1"/>
<path d="M176.109 442.727C176.802 442.727 177.396 442.849 177.891 443.094C178.385 443.339 178.76 443.685 179.016 444.133C179.276 444.581 179.406 445.099 179.406 445.688C179.406 446.276 179.276 446.792 179.016 447.234C178.76 447.672 178.385 448.013 177.891 448.258C177.396 448.497 176.802 448.617 176.109 448.617H174.273V450.938H176.148C176.326 450.938 176.451 450.979 176.523 451.062C176.602 451.141 176.641 451.276 176.641 451.469C176.641 451.661 176.602 451.799 176.523 451.883C176.451 451.961 176.326 452 176.148 452H171.836C171.659 452 171.531 451.961 171.453 451.883C171.38 451.799 171.344 451.661 171.344 451.469C171.344 451.276 171.38 451.141 171.453 451.062C171.531 450.979 171.659 450.938 171.836 450.938H173.102V443.789H171.836C171.659 443.789 171.531 443.75 171.453 443.672C171.38 443.589 171.344 443.451 171.344 443.258C171.344 443.065 171.38 442.93 171.453 442.852C171.531 442.768 171.659 442.727 171.836 442.727H176.109ZM174.273 447.555H175.945C176.669 447.555 177.221 447.391 177.602 447.062C177.982 446.734 178.172 446.276 178.172 445.688C178.172 445.089 177.979 444.622 177.594 444.289C177.214 443.956 176.664 443.789 175.945 443.789H174.273V447.555ZM185.758 442.727C185.935 442.727 186.06 442.768 186.133 442.852C186.211 442.93 186.25 443.065 186.25 443.258C186.25 443.451 186.211 443.589 186.133 443.672C186.06 443.75 185.935 443.789 185.758 443.789H183.867V450.938H187.734V448.367C187.734 448.185 187.779 448.055 187.867 447.977C187.956 447.898 188.107 447.859 188.32 447.859C188.534 447.859 188.685 447.898 188.773 447.977C188.862 448.055 188.906 448.185 188.906 448.367V451.469C188.906 451.661 188.867 451.799 188.789 451.883C188.716 451.961 188.591 452 188.414 452H181.43C181.253 452 181.125 451.961 181.047 451.883C180.974 451.799 180.938 451.661 180.938 451.469C180.938 451.276 180.974 451.141 181.047 451.062C181.125 450.979 181.253 450.938 181.43 450.938H182.695V443.789H181.43C181.253 443.789 181.125 443.75 181.047 443.672C180.974 443.589 180.938 443.451 180.938 443.258C180.938 443.065 180.974 442.93 181.047 442.852C181.125 442.768 181.253 442.727 181.43 442.727H185.758ZM194.906 442.727C195.115 442.727 195.281 442.768 195.406 442.852C195.536 442.93 195.633 443.057 195.695 443.234L198.453 450.938H198.93C199.107 450.938 199.232 450.979 199.305 451.062C199.383 451.141 199.422 451.276 199.422 451.469C199.422 451.661 199.383 451.799 199.305 451.883C199.232 451.961 199.107 452 198.93 452H196.164C195.987 452 195.859 451.961 195.781 451.883C195.708 451.799 195.672 451.661 195.672 451.469C195.672 451.276 195.708 451.141 195.781 451.062C195.859 450.979 195.987 450.938 196.164 450.938H197.219L196.578 449.078H192.789L192.141 450.938H193.086C193.263 450.938 193.388 450.979 193.461 451.062C193.539 451.141 193.578 451.276 193.578 451.469C193.578 451.661 193.539 451.799 193.461 451.883C193.388 451.961 193.263 452 193.086 452H190.477C190.299 452 190.172 451.961 190.094 451.883C190.021 451.799 189.984 451.661 189.984 451.469C189.984 451.276 190.021 451.141 190.094 451.062C190.172 450.979 190.299 450.938 190.477 450.938H190.914L193.5 443.789H192.039C191.862 443.789 191.734 443.75 191.656 443.672C191.583 443.589 191.547 443.451 191.547 443.258C191.547 443.065 191.583 442.93 191.656 442.852C191.734 442.768 191.862 442.727 192.039 442.727H194.906ZM194.617 443.789L193.156 448.016H196.219L194.766 443.789H194.617ZM208.133 442.727C208.31 442.727 208.435 442.768 208.508 442.852C208.586 442.93 208.625 443.065 208.625 443.258C208.625 443.451 208.586 443.589 208.508 443.672C208.435 443.75 208.31 443.789 208.133 443.789H207.602L204.883 448.156V450.938H206.648C206.826 450.938 206.951 450.979 207.023 451.062C207.102 451.141 207.141 451.276 207.141 451.469C207.141 451.661 207.102 451.799 207.023 451.883C206.951 451.961 206.826 452 206.648 452H201.945C201.768 452 201.641 451.961 201.562 451.883C201.49 451.799 201.453 451.661 201.453 451.469C201.453 451.276 201.49 451.141 201.562 451.062C201.641 450.979 201.768 450.938 201.945 450.938H203.711V448.156L201.008 443.789H200.461C200.284 443.789 200.156 443.75 200.078 443.672C200.005 443.589 199.969 443.451 199.969 443.258C199.969 443.065 200.005 442.93 200.078 442.852C200.156 442.768 200.284 442.727 200.461 442.727H203.07C203.247 442.727 203.372 442.768 203.445 442.852C203.523 442.93 203.562 443.065 203.562 443.258C203.562 443.451 203.523 443.589 203.445 443.672C203.372 443.75 203.247 443.789 203.07 443.789H202.344L204.297 446.984L206.266 443.789H205.758C205.581 443.789 205.453 443.75 205.375 443.672C205.302 443.589 205.266 443.451 205.266 443.258C205.266 443.065 205.302 442.93 205.375 442.852C205.453 442.768 205.581 442.727 205.758 442.727H208.133ZM217.102 448.641C217.315 448.641 217.466 448.68 217.555 448.758C217.643 448.836 217.688 448.966 217.688 449.148V451.469C217.688 451.661 217.648 451.799 217.57 451.883C217.497 451.961 217.372 452 217.195 452H210.211C210.034 452 209.906 451.961 209.828 451.883C209.755 451.799 209.719 451.661 209.719 451.469C209.719 451.276 209.755 451.141 209.828 451.062C209.906 450.979 210.034 450.938 210.211 450.938H211.008V443.789H210.211C210.034 443.789 209.906 443.75 209.828 443.672C209.755 443.589 209.719 443.451 209.719 443.258C209.719 443.065 209.755 442.93 209.828 442.852C209.906 442.768 210.034 442.727 210.211 442.727H217.039C217.216 442.727 217.341 442.768 217.414 442.852C217.492 442.93 217.531 443.065 217.531 443.258V445.242C217.531 445.424 217.487 445.555 217.398 445.633C217.31 445.711 217.159 445.75 216.945 445.75C216.732 445.75 216.581 445.711 216.492 445.633C216.404 445.555 216.359 445.424 216.359 445.242V443.789H212.18V446.688H214.195V445.977C214.195 445.794 214.234 445.664 214.312 445.586C214.396 445.508 214.542 445.469 214.75 445.469C214.958 445.469 215.102 445.508 215.18 445.586C215.263 445.664 215.305 445.794 215.305 445.977V448.461C215.305 448.643 215.263 448.773 215.18 448.852C215.102 448.93 214.958 448.969 214.75 448.969C214.542 448.969 214.396 448.93 214.312 448.852C214.234 448.773 214.195 448.643 214.195 448.461V447.75H212.18V450.938H216.516V449.148C216.516 448.966 216.56 448.836 216.648 448.758C216.737 448.68 216.888 448.641 217.102 448.641ZM223.758 442.727C224.409 442.727 224.966 442.836 225.43 443.055C225.898 443.273 226.253 443.581 226.492 443.977C226.737 444.372 226.859 444.833 226.859 445.359C226.859 445.953 226.667 446.456 226.281 446.867C225.896 447.279 225.367 447.56 224.695 447.711C224.987 447.826 225.229 448.01 225.422 448.266C225.583 448.479 225.721 448.693 225.836 448.906C225.951 449.115 226.078 449.372 226.219 449.68C226.365 449.997 226.477 450.229 226.555 450.375C226.758 450.75 226.992 450.938 227.258 450.938H227.477C227.654 450.938 227.779 450.979 227.852 451.062C227.93 451.141 227.969 451.276 227.969 451.469C227.969 451.661 227.93 451.799 227.852 451.883C227.779 451.961 227.654 452 227.477 452H226.914C226.602 452 226.336 451.919 226.117 451.758C225.904 451.591 225.695 451.31 225.492 450.914C225.378 450.685 225.237 450.383 225.07 450.008C224.914 449.664 224.786 449.398 224.688 449.211C224.594 449.018 224.479 448.828 224.344 448.641C224.188 448.422 224 448.258 223.781 448.148C223.562 448.034 223.299 447.977 222.992 447.977H221.93V450.938H222.945C223.122 450.938 223.247 450.979 223.32 451.062C223.398 451.141 223.438 451.276 223.438 451.469C223.438 451.661 223.398 451.799 223.32 451.883C223.247 451.961 223.122 452 222.945 452H219.805C219.628 452 219.5 451.961 219.422 451.883C219.349 451.799 219.312 451.661 219.312 451.469C219.312 451.276 219.349 451.141 219.422 451.062C219.5 450.979 219.628 450.938 219.805 450.938H220.758V443.789H219.805C219.628 443.789 219.5 443.75 219.422 443.672C219.349 443.589 219.312 443.451 219.312 443.258C219.312 443.065 219.349 442.93 219.422 442.852C219.5 442.768 219.628 442.727 219.805 442.727H223.758ZM221.93 446.914H223.516C224.922 446.914 225.625 446.396 225.625 445.359C225.625 444.859 225.448 444.474 225.094 444.203C224.74 443.927 224.24 443.789 223.594 443.789H221.93V446.914Z" fill="#00FF00" fill-opacity="0.3"/>
<path d="M383.227 442.555C383.44 442.555 383.591 442.594 383.68 442.672C383.768 442.75 383.812 442.88 383.812 443.062V445.328C383.812 445.51 383.768 445.641 383.68 445.719C383.591 445.797 383.44 445.836 383.227 445.836C383.013 445.836 382.862 445.797 382.773 445.719C382.685 445.641 382.641 445.51 382.641 445.328C382.641 445.016 382.555 444.737 382.383 444.492C382.216 444.247 381.969 444.057 381.641 443.922C381.312 443.781 380.922 443.711 380.469 443.711C379.891 443.711 379.378 443.859 378.93 444.156C378.487 444.453 378.141 444.878 377.891 445.43C377.641 445.982 377.516 446.628 377.516 447.367C377.516 448.107 377.633 448.753 377.867 449.305C378.107 449.852 378.443 450.273 378.875 450.57C379.312 450.867 379.818 451.016 380.391 451.016C381.302 451.016 382.081 450.867 382.727 450.57V448.797H380.797C380.62 448.797 380.492 448.758 380.414 448.68C380.341 448.596 380.305 448.458 380.305 448.266C380.305 448.073 380.341 447.938 380.414 447.859C380.492 447.776 380.62 447.734 380.797 447.734H384.148C384.326 447.734 384.451 447.776 384.523 447.859C384.602 447.938 384.641 448.073 384.641 448.266C384.641 448.458 384.602 448.596 384.523 448.68C384.451 448.758 384.326 448.797 384.148 448.797H383.898V450.883C383.898 451.138 383.805 451.318 383.617 451.422C383.19 451.667 382.698 451.854 382.141 451.984C381.583 452.109 381 452.172 380.391 452.172C379.578 452.172 378.859 451.974 378.234 451.578C377.615 451.177 377.133 450.615 376.789 449.891C376.451 449.161 376.281 448.32 376.281 447.367C376.281 446.419 376.456 445.581 376.805 444.852C377.159 444.122 377.646 443.557 378.266 443.156C378.891 442.755 379.599 442.555 380.391 442.555C380.88 442.555 381.312 442.633 381.688 442.789C382.068 442.94 382.385 443.159 382.641 443.445V443.062C382.641 442.88 382.685 442.75 382.773 442.672C382.862 442.594 383.013 442.555 383.227 442.555ZM393.664 442.727C393.841 442.727 393.966 442.768 394.039 442.852C394.117 442.93 394.156 443.065 394.156 443.258C394.156 443.451 394.117 443.589 394.039 443.672C393.966 443.75 393.841 443.789 393.664 443.789H393.18V448.93C393.18 450.018 392.893 450.831 392.32 451.367C391.753 451.904 390.948 452.172 389.906 452.172C388.865 452.172 388.057 451.904 387.484 451.367C386.917 450.831 386.633 450.018 386.633 448.93V443.789H386.148C385.971 443.789 385.844 443.75 385.766 443.672C385.693 443.589 385.656 443.451 385.656 443.258C385.656 443.065 385.693 442.93 385.766 442.852C385.844 442.768 385.971 442.727 386.148 442.727H388.68C388.857 442.727 388.982 442.768 389.055 442.852C389.133 442.93 389.172 443.065 389.172 443.258C389.172 443.451 389.133 443.589 389.055 443.672C388.982 443.75 388.857 443.789 388.68 443.789H387.805V448.773C387.805 449.57 387.974 450.143 388.312 450.492C388.651 450.841 389.182 451.016 389.906 451.016C390.63 451.016 391.161 450.841 391.5 450.492C391.839 450.143 392.008 449.57 392.008 448.773V443.789H391.133C390.956 443.789 390.828 443.75 390.75 443.672C390.677 443.589 390.641 443.451 390.641 443.258C390.641 443.065 390.677 442.93 390.75 442.852C390.828 442.768 390.956 442.727 391.133 442.727H393.664ZM402.711 448.641C402.924 448.641 403.076 448.68 403.164 448.758C403.253 448.836 403.297 448.966 403.297 449.148V451.469C403.297 451.661 403.258 451.799 403.18 451.883C403.107 451.961 402.982 452 402.805 452H395.82C395.643 452 395.516 451.961 395.438 451.883C395.365 451.799 395.328 451.661 395.328 451.469C395.328 451.276 395.365 451.141 395.438 451.062C395.516 450.979 395.643 450.938 395.82 450.938H396.617V443.789H395.82C395.643 443.789 395.516 443.75 395.438 443.672C395.365 443.589 395.328 443.451 395.328 443.258C395.328 443.065 395.365 442.93 395.438 442.852C395.516 442.768 395.643 442.727 395.82 442.727H402.648C402.826 442.727 402.951 442.768 403.023 442.852C403.102 442.93 403.141 443.065 403.141 443.258V445.242C403.141 445.424 403.096 445.555 403.008 445.633C402.919 445.711 402.768 445.75 402.555 445.75C402.341 445.75 402.19 445.711 402.102 445.633C402.013 445.555 401.969 445.424 401.969 445.242V443.789H397.789V446.688H399.805V445.977C399.805 445.794 399.844 445.664 399.922 445.586C400.005 445.508 400.151 445.469 400.359 445.469C400.568 445.469 400.711 445.508 400.789 445.586C400.872 445.664 400.914 445.794 400.914 445.977V448.461C400.914 448.643 400.872 448.773 400.789 448.852C400.711 448.93 400.568 448.969 400.359 448.969C400.151 448.969 400.005 448.93 399.922 448.852C399.844 448.773 399.805 448.643 399.805 448.461V447.75H397.789V450.938H402.125V449.148C402.125 448.966 402.169 448.836 402.258 448.758C402.346 448.68 402.497 448.641 402.711 448.641ZM411.664 442.555C411.878 442.555 412.029 442.594 412.117 442.672C412.206 442.75 412.25 442.88 412.25 443.062V444.859C412.25 445.042 412.206 445.172 412.117 445.25C412.029 445.328 411.878 445.367 411.664 445.367C411.466 445.367 411.331 445.299 411.258 445.164C411.008 444.69 410.656 444.331 410.203 444.086C409.75 443.836 409.234 443.711 408.656 443.711C408.083 443.711 407.638 443.844 407.32 444.109C407.008 444.375 406.852 444.732 406.852 445.18C406.852 445.393 406.906 445.573 407.016 445.719C407.125 445.865 407.281 445.99 407.484 446.094C407.667 446.188 407.88 446.266 408.125 446.328C408.37 446.385 408.698 446.453 409.109 446.531C409.557 446.62 409.911 446.695 410.172 446.758C410.438 446.815 410.698 446.896 410.953 447C411.474 447.214 411.88 447.513 412.172 447.898C412.469 448.279 412.617 448.794 412.617 449.445C412.617 449.987 412.49 450.464 412.234 450.875C411.979 451.281 411.602 451.599 411.102 451.828C410.607 452.057 410.01 452.172 409.312 452.172C408.792 452.172 408.307 452.078 407.859 451.891C407.417 451.698 407.031 451.419 406.703 451.055V451.664C406.703 451.846 406.659 451.977 406.57 452.055C406.482 452.133 406.331 452.172 406.117 452.172C405.904 452.172 405.753 452.133 405.664 452.055C405.576 451.977 405.531 451.846 405.531 451.664V449.32C405.531 449.138 405.576 449.008 405.664 448.93C405.753 448.852 405.904 448.812 406.117 448.812C406.341 448.812 406.492 448.922 406.57 449.141C406.784 449.745 407.122 450.208 407.586 450.531C408.055 450.854 408.63 451.016 409.312 451.016C409.979 451.016 410.49 450.872 410.844 450.586C411.203 450.299 411.383 449.919 411.383 449.445C411.383 449.117 411.299 448.852 411.133 448.648C410.971 448.44 410.734 448.268 410.422 448.133C410.224 448.044 410.008 447.974 409.773 447.922C409.539 447.865 409.219 447.794 408.812 447.711C408.385 447.628 408.026 447.549 407.734 447.477C407.448 447.404 407.182 447.312 406.938 447.203C406.521 447.016 406.195 446.763 405.961 446.445C405.732 446.122 405.617 445.701 405.617 445.18C405.617 444.643 405.745 444.177 406 443.781C406.26 443.385 406.62 443.083 407.078 442.875C407.542 442.661 408.068 442.555 408.656 442.555C409.115 442.555 409.557 442.643 409.984 442.82C410.411 442.997 410.776 443.237 411.078 443.539V443.062C411.078 442.88 411.122 442.75 411.211 442.672C411.299 442.594 411.451 442.555 411.664 442.555ZM422.039 442.727C422.216 442.727 422.341 442.768 422.414 442.852C422.492 442.93 422.531 443.065 422.531 443.258V446.203C422.531 446.385 422.487 446.516 422.398 446.594C422.31 446.672 422.159 446.711 421.945 446.711C421.732 446.711 421.581 446.672 421.492 446.594C421.404 446.516 421.359 446.385 421.359 446.203V443.789H419.273V450.938H421.117C421.294 450.938 421.419 450.979 421.492 451.062C421.57 451.141 421.609 451.276 421.609 451.469C421.609 451.661 421.57 451.799 421.492 451.883C421.419 451.961 421.294 452 421.117 452H416.258C416.081 452 415.953 451.961 415.875 451.883C415.802 451.799 415.766 451.661 415.766 451.469C415.766 451.276 415.802 451.141 415.875 451.062C415.953 450.979 416.081 450.938 416.258 450.938H418.102V443.789H416.016V446.203C416.016 446.385 415.971 446.516 415.883 446.594C415.794 446.672 415.643 446.711 415.43 446.711C415.216 446.711 415.065 446.672 414.977 446.594C414.888 446.516 414.844 446.385 414.844 446.203V443.258C414.844 443.065 414.88 442.93 414.953 442.852C415.031 442.768 415.159 442.727 415.336 442.727H422.039Z" fill="#00FF00" fill-opacity="0.3"/>
</g>
<defs>
<clipPath id="clip0_15_2">
<rect width="600" height="500" fill="white"/>
</clipPath>
</defs>
</svg>
