<svg width="500" height="500" viewBox="0 0 500 500" fill="none" xmlns="http://www.w3.org/2000/svg">
<g clip-path="url(#clip0_12_2)">
<line x1="-0.00204468" y1="409.5" x2="500.002" y2="409.5" stroke="#00FF00" stroke-opacity="0.3"/>
<rect x="215.5" y="464.5" width="69" height="54" stroke="#00FF00" stroke-opacity="0.3"/>
<line x1="-1.75913" y1="515.052" x2="104.307" y2="408.986" stroke="#00FF00" stroke-opacity="0.1"/>
<line x1="-51.7591" y1="515.052" x2="54.3069" y2="408.986" stroke="#00FF00" stroke-opacity="0.1"/>
<line x1="48.2409" y1="515.052" x2="154.307" y2="408.986" stroke="#00FF00" stroke-opacity="0.1"/>
<line x1="98.2409" y1="515.052" x2="204.307" y2="408.986" stroke="#00FF00" stroke-opacity="0.1"/>
<line x1="148.241" y1="515.052" x2="254.307" y2="408.986" stroke="#00FF00" stroke-opacity="0.1"/>
<line x1="249.307" y1="463.986" x2="304.307" y2="408.986" stroke="#00FF00" stroke-opacity="0.1"/>
<line x1="284.307" y1="478.986" x2="354.307" y2="408.986" stroke="#00FF00" stroke-opacity="0.1"/>
<line x1="298.241" y1="515.052" x2="404.307" y2="408.986" stroke="#00FF00" stroke-opacity="0.1"/>
<line x1="348.241" y1="515.052" x2="454.307" y2="408.986" stroke="#00FF00" stroke-opacity="0.1"/>
<line x1="398.241" y1="515.052" x2="504.307" y2="408.986" stroke="#00FF00" stroke-opacity="0.1"/>
<line x1="448.241" y1="515.052" x2="554.307" y2="408.986" stroke="#00FF00" stroke-opacity="0.1"/>
<path d="M128.539 432.727C128.716 432.727 128.841 432.768 128.914 432.852C128.992 432.93 129.031 433.065 129.031 433.258C129.031 433.451 128.992 433.589 128.914 433.672C128.841 433.75 128.716 433.789 128.539 433.789H128.094V441.711C128.094 441.852 128.044 441.964 127.945 442.047C127.852 442.13 127.706 442.172 127.508 442.172C127.232 442.172 127.013 442.029 126.852 441.742L122.797 434.5H122.766V440.938H123.867C124.044 440.938 124.169 440.979 124.242 441.062C124.32 441.141 124.359 441.276 124.359 441.469C124.359 441.661 124.32 441.799 124.242 441.883C124.169 441.961 124.044 442 123.867 442H121.102C120.924 442 120.797 441.961 120.719 441.883C120.646 441.799 120.609 441.661 120.609 441.469C120.609 441.276 120.646 441.141 120.719 441.062C120.797 440.979 120.924 440.938 121.102 440.938H121.625V433.789H121.023C120.846 433.789 120.719 433.75 120.641 433.672C120.568 433.589 120.531 433.451 120.531 433.258C120.531 433.065 120.568 432.93 120.641 432.852C120.719 432.768 120.846 432.727 121.023 432.727H122.773C122.888 432.727 122.979 432.745 123.047 432.781C123.12 432.818 123.177 432.872 123.219 432.945L126.922 439.57H126.953V433.789H126.008C125.831 433.789 125.703 433.75 125.625 433.672C125.552 433.589 125.516 433.451 125.516 433.258C125.516 433.065 125.552 432.93 125.625 432.852C125.703 432.768 125.831 432.727 126.008 432.727H128.539ZM134.375 432.555C135.188 432.555 135.904 432.755 136.523 433.156C137.148 433.557 137.63 434.122 137.969 434.852C138.312 435.576 138.484 436.414 138.484 437.367C138.484 438.32 138.312 439.161 137.969 439.891C137.63 440.615 137.148 441.177 136.523 441.578C135.904 441.974 135.188 442.172 134.375 442.172C133.562 442.172 132.844 441.974 132.219 441.578C131.599 441.177 131.117 440.615 130.773 439.891C130.435 439.161 130.266 438.32 130.266 437.367C130.266 436.414 130.435 435.576 130.773 434.852C131.117 434.122 131.599 433.557 132.219 433.156C132.844 432.755 133.562 432.555 134.375 432.555ZM134.375 433.711C133.802 433.711 133.297 433.859 132.859 434.156C132.427 434.453 132.091 434.878 131.852 435.43C131.617 435.982 131.5 436.628 131.5 437.367C131.5 438.107 131.617 438.753 131.852 439.305C132.091 439.852 132.427 440.273 132.859 440.57C133.297 440.867 133.802 441.016 134.375 441.016C134.948 441.016 135.451 440.867 135.883 440.57C136.32 440.273 136.656 439.852 136.891 439.305C137.13 438.753 137.25 438.107 137.25 437.367C137.25 436.628 137.13 435.982 136.891 435.43C136.656 434.878 136.32 434.453 135.883 434.156C135.451 433.859 134.948 433.711 134.375 433.711ZM153.797 432.727C154.406 432.727 154.924 432.831 155.352 433.039C155.779 433.247 156.099 433.542 156.312 433.922C156.531 434.297 156.641 434.737 156.641 435.242C156.641 435.638 156.549 435.99 156.367 436.297C156.19 436.599 155.935 436.846 155.602 437.039C156.154 437.216 156.576 437.503 156.867 437.898C157.164 438.289 157.312 438.773 157.312 439.352C157.312 439.898 157.195 440.37 156.961 440.766C156.727 441.161 156.385 441.466 155.938 441.68C155.49 441.893 154.948 442 154.312 442H149.883C149.706 442 149.578 441.961 149.5 441.883C149.427 441.799 149.391 441.661 149.391 441.469C149.391 441.276 149.427 441.141 149.5 441.062C149.578 440.979 149.706 440.938 149.883 440.938H150.836V433.789H149.883C149.706 433.789 149.578 433.75 149.5 433.672C149.427 433.589 149.391 433.451 149.391 433.258C149.391 433.065 149.427 432.93 149.5 432.852C149.578 432.768 149.706 432.727 149.883 432.727H153.797ZM152.008 436.68H153.625C154.224 436.68 154.677 436.555 154.984 436.305C155.292 436.055 155.445 435.701 155.445 435.242C155.445 434.763 155.294 434.401 154.992 434.156C154.69 433.911 154.234 433.789 153.625 433.789H152.008V436.68ZM152.008 440.938H154.078C154.719 440.938 155.211 440.799 155.555 440.523C155.904 440.247 156.078 439.857 156.078 439.352C156.078 438.279 155.424 437.742 154.117 437.742H152.008V440.938ZM163.43 432.727C164.081 432.727 164.638 432.836 165.102 433.055C165.57 433.273 165.924 433.581 166.164 433.977C166.409 434.372 166.531 434.833 166.531 435.359C166.531 435.953 166.339 436.456 165.953 436.867C165.568 437.279 165.039 437.56 164.367 437.711C164.659 437.826 164.901 438.01 165.094 438.266C165.255 438.479 165.393 438.693 165.508 438.906C165.622 439.115 165.75 439.372 165.891 439.68C166.036 439.997 166.148 440.229 166.227 440.375C166.43 440.75 166.664 440.938 166.93 440.938H167.148C167.326 440.938 167.451 440.979 167.523 441.062C167.602 441.141 167.641 441.276 167.641 441.469C167.641 441.661 167.602 441.799 167.523 441.883C167.451 441.961 167.326 442 167.148 442H166.586C166.273 442 166.008 441.919 165.789 441.758C165.576 441.591 165.367 441.31 165.164 440.914C165.049 440.685 164.909 440.383 164.742 440.008C164.586 439.664 164.458 439.398 164.359 439.211C164.266 439.018 164.151 438.828 164.016 438.641C163.859 438.422 163.672 438.258 163.453 438.148C163.234 438.034 162.971 437.977 162.664 437.977H161.602V440.938H162.617C162.794 440.938 162.919 440.979 162.992 441.062C163.07 441.141 163.109 441.276 163.109 441.469C163.109 441.661 163.07 441.799 162.992 441.883C162.919 441.961 162.794 442 162.617 442H159.477C159.299 442 159.172 441.961 159.094 441.883C159.021 441.799 158.984 441.661 158.984 441.469C158.984 441.276 159.021 441.141 159.094 441.062C159.172 440.979 159.299 440.938 159.477 440.938H160.43V433.789H159.477C159.299 433.789 159.172 433.75 159.094 433.672C159.021 433.589 158.984 433.451 158.984 433.258C158.984 433.065 159.021 432.93 159.094 432.852C159.172 432.768 159.299 432.727 159.477 432.727H163.43ZM161.602 436.914H163.188C164.594 436.914 165.297 436.396 165.297 435.359C165.297 434.859 165.12 434.474 164.766 434.203C164.411 433.927 163.911 433.789 163.266 433.789H161.602V436.914ZM175.336 432.727C175.513 432.727 175.638 432.768 175.711 432.852C175.789 432.93 175.828 433.065 175.828 433.258C175.828 433.451 175.789 433.589 175.711 433.672C175.638 433.75 175.513 433.789 175.336 433.789H173.336V440.938H175.492C175.669 440.938 175.794 440.979 175.867 441.062C175.945 441.141 175.984 441.276 175.984 441.469C175.984 441.661 175.945 441.799 175.867 441.883C175.794 441.961 175.669 442 175.492 442H170.008C169.831 442 169.703 441.961 169.625 441.883C169.552 441.799 169.516 441.661 169.516 441.469C169.516 441.276 169.552 441.141 169.625 441.062C169.703 440.979 169.831 440.938 170.008 440.938H172.164V433.789H170.164C169.987 433.789 169.859 433.75 169.781 433.672C169.708 433.589 169.672 433.451 169.672 433.258C169.672 433.065 169.708 432.93 169.781 432.852C169.859 432.768 169.987 432.727 170.164 432.727H175.336ZM185.352 432.555C185.565 432.555 185.716 432.594 185.805 432.672C185.893 432.75 185.938 432.88 185.938 433.062V435.641C185.938 435.823 185.893 435.953 185.805 436.031C185.716 436.109 185.565 436.148 185.352 436.148C185.138 436.148 184.987 436.109 184.898 436.031C184.81 435.953 184.766 435.823 184.766 435.641C184.766 435.286 184.685 434.964 184.523 434.672C184.367 434.38 184.125 434.148 183.797 433.977C183.469 433.799 183.062 433.711 182.578 433.711C182.016 433.711 181.516 433.859 181.078 434.156C180.646 434.453 180.307 434.878 180.062 435.43C179.823 435.982 179.703 436.628 179.703 437.367C179.703 438.107 179.818 438.753 180.047 439.305C180.276 439.852 180.602 440.273 181.023 440.57C181.445 440.867 181.938 441.016 182.5 441.016C183.016 441.016 183.508 440.94 183.977 440.789C184.445 440.638 184.867 440.419 185.242 440.133C185.331 440.06 185.427 440.023 185.531 440.023C185.688 440.023 185.826 440.125 185.945 440.328C186.039 440.484 186.086 440.622 186.086 440.742C186.086 440.898 186.005 441.034 185.844 441.148C185.359 441.487 184.831 441.742 184.258 441.914C183.69 442.086 183.104 442.172 182.5 442.172C181.688 442.172 180.977 441.974 180.367 441.578C179.763 441.177 179.294 440.615 178.961 439.891C178.633 439.167 178.469 438.326 178.469 437.367C178.469 436.414 178.638 435.576 178.977 434.852C179.315 434.122 179.789 433.557 180.398 433.156C181.013 432.755 181.714 432.555 182.5 432.555C182.99 432.555 183.424 432.638 183.805 432.805C184.185 432.971 184.505 433.208 184.766 433.516V433.062C184.766 432.88 184.81 432.75 184.898 432.672C184.987 432.594 185.138 432.555 185.352 432.555ZM195.695 432.727C195.872 432.727 195.997 432.768 196.07 432.852C196.148 432.93 196.188 433.065 196.188 433.258C196.188 433.451 196.148 433.589 196.07 433.672C195.997 433.75 195.872 433.789 195.695 433.789H195.219L191.945 436.953C191.987 436.948 192.049 436.945 192.133 436.945C192.815 436.945 193.359 437.206 193.766 437.727C193.927 437.935 194.068 438.169 194.188 438.43C194.312 438.69 194.448 439.016 194.594 439.406C194.615 439.458 194.667 439.596 194.75 439.82C194.839 440.039 194.924 440.224 195.008 440.375C195.211 440.75 195.445 440.938 195.711 440.938H195.93C196.107 440.938 196.232 440.979 196.305 441.062C196.383 441.141 196.422 441.276 196.422 441.469C196.422 441.661 196.383 441.799 196.305 441.883C196.232 441.961 196.107 442 195.93 442H195.289C194.763 442 194.315 441.638 193.945 440.914C193.815 440.654 193.661 440.297 193.484 439.844C193.365 439.526 193.255 439.258 193.156 439.039C193.057 438.82 192.948 438.625 192.828 438.453C192.703 438.276 192.544 438.141 192.352 438.047C192.164 437.953 191.951 437.906 191.711 437.906C191.492 437.906 191.281 437.945 191.078 438.023C190.875 438.102 190.695 438.216 190.539 438.367L190.305 438.594V440.938H191.57C191.747 440.938 191.872 440.979 191.945 441.062C192.023 441.141 192.062 441.276 192.062 441.469C192.062 441.661 192.023 441.799 191.945 441.883C191.872 441.961 191.747 442 191.57 442H188.258C188.081 442 187.953 441.961 187.875 441.883C187.802 441.799 187.766 441.661 187.766 441.469C187.766 441.276 187.802 441.141 187.875 441.062C187.953 440.979 188.081 440.938 188.258 440.938H189.133V433.789H188.258C188.081 433.789 187.953 433.75 187.875 433.672C187.802 433.589 187.766 433.451 187.766 433.258C187.766 433.065 187.802 432.93 187.875 432.852C187.953 432.768 188.081 432.727 188.258 432.727H191.023C191.201 432.727 191.326 432.768 191.398 432.852C191.477 432.93 191.516 433.065 191.516 433.258C191.516 433.451 191.477 433.589 191.398 433.672C191.326 433.75 191.201 433.789 191.023 433.789H190.305V437.141L193.727 433.789H193.164C192.987 433.789 192.859 433.75 192.781 433.672C192.708 433.589 192.672 433.451 192.672 433.258C192.672 433.065 192.708 432.93 192.781 432.852C192.859 432.768 192.987 432.727 193.164 432.727H195.695ZM204.102 432.555C204.315 432.555 204.466 432.594 204.555 432.672C204.643 432.75 204.688 432.88 204.688 433.062V434.859C204.688 435.042 204.643 435.172 204.555 435.25C204.466 435.328 204.315 435.367 204.102 435.367C203.904 435.367 203.768 435.299 203.695 435.164C203.445 434.69 203.094 434.331 202.641 434.086C202.188 433.836 201.672 433.711 201.094 433.711C200.521 433.711 200.076 433.844 199.758 434.109C199.445 434.375 199.289 434.732 199.289 435.18C199.289 435.393 199.344 435.573 199.453 435.719C199.562 435.865 199.719 435.99 199.922 436.094C200.104 436.188 200.318 436.266 200.562 436.328C200.807 436.385 201.135 436.453 201.547 436.531C201.995 436.62 202.349 436.695 202.609 436.758C202.875 436.815 203.135 436.896 203.391 437C203.911 437.214 204.318 437.513 204.609 437.898C204.906 438.279 205.055 438.794 205.055 439.445C205.055 439.987 204.927 440.464 204.672 440.875C204.417 441.281 204.039 441.599 203.539 441.828C203.044 442.057 202.448 442.172 201.75 442.172C201.229 442.172 200.745 442.078 200.297 441.891C199.854 441.698 199.469 441.419 199.141 441.055V441.664C199.141 441.846 199.096 441.977 199.008 442.055C198.919 442.133 198.768 442.172 198.555 442.172C198.341 442.172 198.19 442.133 198.102 442.055C198.013 441.977 197.969 441.846 197.969 441.664V439.32C197.969 439.138 198.013 439.008 198.102 438.93C198.19 438.852 198.341 438.812 198.555 438.812C198.779 438.812 198.93 438.922 199.008 439.141C199.221 439.745 199.56 440.208 200.023 440.531C200.492 440.854 201.068 441.016 201.75 441.016C202.417 441.016 202.927 440.872 203.281 440.586C203.641 440.299 203.82 439.919 203.82 439.445C203.82 439.117 203.737 438.852 203.57 438.648C203.409 438.44 203.172 438.268 202.859 438.133C202.661 438.044 202.445 437.974 202.211 437.922C201.977 437.865 201.656 437.794 201.25 437.711C200.823 437.628 200.464 437.549 200.172 437.477C199.885 437.404 199.62 437.312 199.375 437.203C198.958 437.016 198.633 436.763 198.398 436.445C198.169 436.122 198.055 435.701 198.055 435.18C198.055 434.643 198.182 434.177 198.438 433.781C198.698 433.385 199.057 433.083 199.516 432.875C199.979 432.661 200.505 432.555 201.094 432.555C201.552 432.555 201.995 432.643 202.422 432.82C202.849 432.997 203.214 433.237 203.516 433.539V433.062C203.516 432.88 203.56 432.75 203.648 432.672C203.737 432.594 203.888 432.555 204.102 432.555ZM220.953 432.727C221.562 432.727 222.081 432.831 222.508 433.039C222.935 433.247 223.255 433.542 223.469 433.922C223.688 434.297 223.797 434.737 223.797 435.242C223.797 435.638 223.706 435.99 223.523 436.297C223.346 436.599 223.091 436.846 222.758 437.039C223.31 437.216 223.732 437.503 224.023 437.898C224.32 438.289 224.469 438.773 224.469 439.352C224.469 439.898 224.352 440.37 224.117 440.766C223.883 441.161 223.542 441.466 223.094 441.68C222.646 441.893 222.104 442 221.469 442H217.039C216.862 442 216.734 441.961 216.656 441.883C216.583 441.799 216.547 441.661 216.547 441.469C216.547 441.276 216.583 441.141 216.656 441.062C216.734 440.979 216.862 440.938 217.039 440.938H217.992V433.789H217.039C216.862 433.789 216.734 433.75 216.656 433.672C216.583 433.589 216.547 433.451 216.547 433.258C216.547 433.065 216.583 432.93 216.656 432.852C216.734 432.768 216.862 432.727 217.039 432.727H220.953ZM219.164 436.68H220.781C221.38 436.68 221.833 436.555 222.141 436.305C222.448 436.055 222.602 435.701 222.602 435.242C222.602 434.763 222.451 434.401 222.148 434.156C221.846 433.911 221.391 433.789 220.781 433.789H219.164V436.68ZM219.164 440.938H221.234C221.875 440.938 222.367 440.799 222.711 440.523C223.06 440.247 223.234 439.857 223.234 439.352C223.234 438.279 222.581 437.742 221.273 437.742H219.164V440.938ZM233.523 438.641C233.737 438.641 233.888 438.68 233.977 438.758C234.065 438.836 234.109 438.966 234.109 439.148V441.469C234.109 441.661 234.07 441.799 233.992 441.883C233.919 441.961 233.794 442 233.617 442H226.633C226.456 442 226.328 441.961 226.25 441.883C226.177 441.799 226.141 441.661 226.141 441.469C226.141 441.276 226.177 441.141 226.25 441.062C226.328 440.979 226.456 440.938 226.633 440.938H227.43V433.789H226.633C226.456 433.789 226.328 433.75 226.25 433.672C226.177 433.589 226.141 433.451 226.141 433.258C226.141 433.065 226.177 432.93 226.25 432.852C226.328 432.768 226.456 432.727 226.633 432.727H233.461C233.638 432.727 233.763 432.768 233.836 432.852C233.914 432.93 233.953 433.065 233.953 433.258V435.242C233.953 435.424 233.909 435.555 233.82 435.633C233.732 435.711 233.581 435.75 233.367 435.75C233.154 435.75 233.003 435.711 232.914 435.633C232.826 435.555 232.781 435.424 232.781 435.242V433.789H228.602V436.688H230.617V435.977C230.617 435.794 230.656 435.664 230.734 435.586C230.818 435.508 230.964 435.469 231.172 435.469C231.38 435.469 231.523 435.508 231.602 435.586C231.685 435.664 231.727 435.794 231.727 435.977V438.461C231.727 438.643 231.685 438.773 231.602 438.852C231.523 438.93 231.38 438.969 231.172 438.969C230.964 438.969 230.818 438.93 230.734 438.852C230.656 438.773 230.617 438.643 230.617 438.461V437.75H228.602V440.938H232.938V439.148C232.938 438.966 232.982 438.836 233.07 438.758C233.159 438.68 233.31 438.641 233.523 438.641ZM240.555 432.727C240.732 432.727 240.857 432.768 240.93 432.852C241.008 432.93 241.047 433.065 241.047 433.258C241.047 433.451 241.008 433.589 240.93 433.672C240.857 433.75 240.732 433.789 240.555 433.789H238.664V440.938H242.531V438.367C242.531 438.185 242.576 438.055 242.664 437.977C242.753 437.898 242.904 437.859 243.117 437.859C243.331 437.859 243.482 437.898 243.57 437.977C243.659 438.055 243.703 438.185 243.703 438.367V441.469C243.703 441.661 243.664 441.799 243.586 441.883C243.513 441.961 243.388 442 243.211 442H236.227C236.049 442 235.922 441.961 235.844 441.883C235.771 441.799 235.734 441.661 235.734 441.469C235.734 441.276 235.771 441.141 235.844 441.062C235.922 440.979 236.049 440.938 236.227 440.938H237.492V433.789H236.227C236.049 433.789 235.922 433.75 235.844 433.672C235.771 433.589 235.734 433.451 235.734 433.258C235.734 433.065 235.771 432.93 235.844 432.852C235.922 432.768 236.049 432.727 236.227 432.727H240.555ZM249.5 432.555C250.312 432.555 251.029 432.755 251.648 433.156C252.273 433.557 252.755 434.122 253.094 434.852C253.438 435.576 253.609 436.414 253.609 437.367C253.609 438.32 253.438 439.161 253.094 439.891C252.755 440.615 252.273 441.177 251.648 441.578C251.029 441.974 250.312 442.172 249.5 442.172C248.688 442.172 247.969 441.974 247.344 441.578C246.724 441.177 246.242 440.615 245.898 439.891C245.56 439.161 245.391 438.32 245.391 437.367C245.391 436.414 245.56 435.576 245.898 434.852C246.242 434.122 246.724 433.557 247.344 433.156C247.969 432.755 248.688 432.555 249.5 432.555ZM249.5 433.711C248.927 433.711 248.422 433.859 247.984 434.156C247.552 434.453 247.216 434.878 246.977 435.43C246.742 435.982 246.625 436.628 246.625 437.367C246.625 438.107 246.742 438.753 246.977 439.305C247.216 439.852 247.552 440.273 247.984 440.57C248.422 440.867 248.927 441.016 249.5 441.016C250.073 441.016 250.576 440.867 251.008 440.57C251.445 440.273 251.781 439.852 252.016 439.305C252.255 438.753 252.375 438.107 252.375 437.367C252.375 436.628 252.255 435.982 252.016 435.43C251.781 434.878 251.445 434.453 251.008 434.156C250.576 433.859 250.073 433.711 249.5 433.711ZM263.477 432.727C263.654 432.727 263.779 432.768 263.852 432.852C263.93 432.93 263.969 433.065 263.969 433.258C263.969 433.451 263.93 433.589 263.852 433.672C263.779 433.75 263.654 433.789 263.477 433.789H263.055L261.977 441.664C261.951 441.852 261.883 441.982 261.773 442.055C261.669 442.133 261.513 442.172 261.305 442.172C260.878 442.172 260.612 442.003 260.508 441.664L259.062 437.125L257.602 441.664C257.492 442.003 257.221 442.172 256.789 442.172C256.586 442.172 256.43 442.133 256.32 442.055C256.216 441.977 256.154 441.846 256.133 441.664L255.094 433.789H254.711C254.534 433.789 254.406 433.75 254.328 433.672C254.255 433.589 254.219 433.451 254.219 433.258C254.219 433.065 254.255 432.93 254.328 432.852C254.406 432.768 254.534 432.727 254.711 432.727H257.398C257.576 432.727 257.701 432.768 257.773 432.852C257.852 432.93 257.891 433.065 257.891 433.258C257.891 433.451 257.852 433.589 257.773 433.672C257.701 433.75 257.576 433.789 257.398 433.789H256.258L257.039 440.047L258.508 435.453C258.581 435.208 258.768 435.086 259.07 435.086C259.237 435.086 259.365 435.112 259.453 435.164C259.547 435.216 259.609 435.294 259.641 435.398L261.102 440.047L261.914 433.789H260.945C260.768 433.789 260.641 433.75 260.562 433.672C260.49 433.589 260.453 433.451 260.453 433.258C260.453 433.065 260.49 432.93 260.562 432.852C260.641 432.768 260.768 432.727 260.945 432.727H263.477ZM281.633 432.727C281.81 432.727 281.935 432.768 282.008 432.852C282.086 432.93 282.125 433.065 282.125 433.258V436.203C282.125 436.385 282.081 436.516 281.992 436.594C281.904 436.672 281.753 436.711 281.539 436.711C281.326 436.711 281.174 436.672 281.086 436.594C280.997 436.516 280.953 436.385 280.953 436.203V433.789H278.867V440.938H280.711C280.888 440.938 281.013 440.979 281.086 441.062C281.164 441.141 281.203 441.276 281.203 441.469C281.203 441.661 281.164 441.799 281.086 441.883C281.013 441.961 280.888 442 280.711 442H275.852C275.674 442 275.547 441.961 275.469 441.883C275.396 441.799 275.359 441.661 275.359 441.469C275.359 441.276 275.396 441.141 275.469 441.062C275.547 440.979 275.674 440.938 275.852 440.938H277.695V433.789H275.609V436.203C275.609 436.385 275.565 436.516 275.477 436.594C275.388 436.672 275.237 436.711 275.023 436.711C274.81 436.711 274.659 436.672 274.57 436.594C274.482 436.516 274.438 436.385 274.438 436.203V433.258C274.438 433.065 274.474 432.93 274.547 432.852C274.625 432.768 274.753 432.727 274.93 432.727H281.633ZM291.555 432.727C291.732 432.727 291.857 432.768 291.93 432.852C292.008 432.93 292.047 433.065 292.047 433.258C292.047 433.451 292.008 433.589 291.93 433.672C291.857 433.75 291.732 433.789 291.555 433.789H290.992V440.938H291.555C291.732 440.938 291.857 440.979 291.93 441.062C292.008 441.141 292.047 441.276 292.047 441.469C292.047 441.661 292.008 441.799 291.93 441.883C291.857 441.961 291.732 442 291.555 442H289.102C288.924 442 288.797 441.961 288.719 441.883C288.646 441.799 288.609 441.661 288.609 441.469C288.609 441.276 288.646 441.141 288.719 441.062C288.797 440.979 288.924 440.938 289.102 440.938H289.82V437.75H285.93V440.938H286.648C286.826 440.938 286.951 440.979 287.023 441.062C287.102 441.141 287.141 441.276 287.141 441.469C287.141 441.661 287.102 441.799 287.023 441.883C286.951 441.961 286.826 442 286.648 442H284.195C284.018 442 283.891 441.961 283.812 441.883C283.74 441.799 283.703 441.661 283.703 441.469C283.703 441.276 283.74 441.141 283.812 441.062C283.891 440.979 284.018 440.938 284.195 440.938H284.758V433.789H284.195C284.018 433.789 283.891 433.75 283.812 433.672C283.74 433.589 283.703 433.451 283.703 433.258C283.703 433.065 283.74 432.93 283.812 432.852C283.891 432.768 284.018 432.727 284.195 432.727H286.648C286.826 432.727 286.951 432.768 287.023 432.852C287.102 432.93 287.141 433.065 287.141 433.258C287.141 433.451 287.102 433.589 287.023 433.672C286.951 433.75 286.826 433.789 286.648 433.789H285.93V436.688H289.82V433.789H289.102C288.924 433.789 288.797 433.75 288.719 433.672C288.646 433.589 288.609 433.451 288.609 433.258C288.609 433.065 288.646 432.93 288.719 432.852C288.797 432.768 288.924 432.727 289.102 432.727H291.555ZM300.055 432.727C300.232 432.727 300.357 432.768 300.43 432.852C300.508 432.93 300.547 433.065 300.547 433.258C300.547 433.451 300.508 433.589 300.43 433.672C300.357 433.75 300.232 433.789 300.055 433.789H298.055V440.938H300.211C300.388 440.938 300.513 440.979 300.586 441.062C300.664 441.141 300.703 441.276 300.703 441.469C300.703 441.661 300.664 441.799 300.586 441.883C300.513 441.961 300.388 442 300.211 442H294.727C294.549 442 294.422 441.961 294.344 441.883C294.271 441.799 294.234 441.661 294.234 441.469C294.234 441.276 294.271 441.141 294.344 441.062C294.422 440.979 294.549 440.938 294.727 440.938H296.883V433.789H294.883C294.706 433.789 294.578 433.75 294.5 433.672C294.427 433.589 294.391 433.451 294.391 433.258C294.391 433.065 294.427 432.93 294.5 432.852C294.578 432.768 294.706 432.727 294.883 432.727H300.055ZM309.633 432.555C309.846 432.555 309.997 432.594 310.086 432.672C310.174 432.75 310.219 432.88 310.219 433.062V434.859C310.219 435.042 310.174 435.172 310.086 435.25C309.997 435.328 309.846 435.367 309.633 435.367C309.435 435.367 309.299 435.299 309.227 435.164C308.977 434.69 308.625 434.331 308.172 434.086C307.719 433.836 307.203 433.711 306.625 433.711C306.052 433.711 305.607 433.844 305.289 434.109C304.977 434.375 304.82 434.732 304.82 435.18C304.82 435.393 304.875 435.573 304.984 435.719C305.094 435.865 305.25 435.99 305.453 436.094C305.635 436.188 305.849 436.266 306.094 436.328C306.339 436.385 306.667 436.453 307.078 436.531C307.526 436.62 307.88 436.695 308.141 436.758C308.406 436.815 308.667 436.896 308.922 437C309.443 437.214 309.849 437.513 310.141 437.898C310.438 438.279 310.586 438.794 310.586 439.445C310.586 439.987 310.458 440.464 310.203 440.875C309.948 441.281 309.57 441.599 309.07 441.828C308.576 442.057 307.979 442.172 307.281 442.172C306.76 442.172 306.276 442.078 305.828 441.891C305.385 441.698 305 441.419 304.672 441.055V441.664C304.672 441.846 304.628 441.977 304.539 442.055C304.451 442.133 304.299 442.172 304.086 442.172C303.872 442.172 303.721 442.133 303.633 442.055C303.544 441.977 303.5 441.846 303.5 441.664V439.32C303.5 439.138 303.544 439.008 303.633 438.93C303.721 438.852 303.872 438.812 304.086 438.812C304.31 438.812 304.461 438.922 304.539 439.141C304.753 439.745 305.091 440.208 305.555 440.531C306.023 440.854 306.599 441.016 307.281 441.016C307.948 441.016 308.458 440.872 308.812 440.586C309.172 440.299 309.352 439.919 309.352 439.445C309.352 439.117 309.268 438.852 309.102 438.648C308.94 438.44 308.703 438.268 308.391 438.133C308.193 438.044 307.977 437.974 307.742 437.922C307.508 437.865 307.188 437.794 306.781 437.711C306.354 437.628 305.995 437.549 305.703 437.477C305.417 437.404 305.151 437.312 304.906 437.203C304.49 437.016 304.164 436.763 303.93 436.445C303.701 436.122 303.586 435.701 303.586 435.18C303.586 434.643 303.714 434.177 303.969 433.781C304.229 433.385 304.589 433.083 305.047 432.875C305.51 432.661 306.036 432.555 306.625 432.555C307.083 432.555 307.526 432.643 307.953 432.82C308.38 432.997 308.745 433.237 309.047 433.539V433.062C309.047 432.88 309.091 432.75 309.18 432.672C309.268 432.594 309.419 432.555 309.633 432.555ZM326.844 432.727C327.536 432.727 328.13 432.849 328.625 433.094C329.12 433.339 329.495 433.685 329.75 434.133C330.01 434.581 330.141 435.099 330.141 435.688C330.141 436.276 330.01 436.792 329.75 437.234C329.495 437.672 329.12 438.013 328.625 438.258C328.13 438.497 327.536 438.617 326.844 438.617H325.008V440.938H326.883C327.06 440.938 327.185 440.979 327.258 441.062C327.336 441.141 327.375 441.276 327.375 441.469C327.375 441.661 327.336 441.799 327.258 441.883C327.185 441.961 327.06 442 326.883 442H322.57C322.393 442 322.266 441.961 322.188 441.883C322.115 441.799 322.078 441.661 322.078 441.469C322.078 441.276 322.115 441.141 322.188 441.062C322.266 440.979 322.393 440.938 322.57 440.938H323.836V433.789H322.57C322.393 433.789 322.266 433.75 322.188 433.672C322.115 433.589 322.078 433.451 322.078 433.258C322.078 433.065 322.115 432.93 322.188 432.852C322.266 432.768 322.393 432.727 322.57 432.727H326.844ZM325.008 437.555H326.68C327.404 437.555 327.956 437.391 328.336 437.062C328.716 436.734 328.906 436.276 328.906 435.688C328.906 435.089 328.714 434.622 328.328 434.289C327.948 433.956 327.398 433.789 326.68 433.789H325.008V437.555ZM335.844 432.555C336.656 432.555 337.372 432.755 337.992 433.156C338.617 433.557 339.099 434.122 339.438 434.852C339.781 435.576 339.953 436.414 339.953 437.367C339.953 438.32 339.781 439.161 339.438 439.891C339.099 440.615 338.617 441.177 337.992 441.578C337.372 441.974 336.656 442.172 335.844 442.172C335.031 442.172 334.312 441.974 333.688 441.578C333.068 441.177 332.586 440.615 332.242 439.891C331.904 439.161 331.734 438.32 331.734 437.367C331.734 436.414 331.904 435.576 332.242 434.852C332.586 434.122 333.068 433.557 333.688 433.156C334.312 432.755 335.031 432.555 335.844 432.555ZM335.844 433.711C335.271 433.711 334.766 433.859 334.328 434.156C333.896 434.453 333.56 434.878 333.32 435.43C333.086 435.982 332.969 436.628 332.969 437.367C332.969 438.107 333.086 438.753 333.32 439.305C333.56 439.852 333.896 440.273 334.328 440.57C334.766 440.867 335.271 441.016 335.844 441.016C336.417 441.016 336.919 440.867 337.352 440.57C337.789 440.273 338.125 439.852 338.359 439.305C338.599 438.753 338.719 438.107 338.719 437.367C338.719 436.628 338.599 435.982 338.359 435.43C338.125 434.878 337.789 434.453 337.352 434.156C336.919 433.859 336.417 433.711 335.844 433.711ZM348.023 432.727C348.201 432.727 348.326 432.768 348.398 432.852C348.477 432.93 348.516 433.065 348.516 433.258C348.516 433.451 348.477 433.589 348.398 433.672C348.326 433.75 348.201 433.789 348.023 433.789H346.023V440.938H348.18C348.357 440.938 348.482 440.979 348.555 441.062C348.633 441.141 348.672 441.276 348.672 441.469C348.672 441.661 348.633 441.799 348.555 441.883C348.482 441.961 348.357 442 348.18 442H342.695C342.518 442 342.391 441.961 342.312 441.883C342.24 441.799 342.203 441.661 342.203 441.469C342.203 441.276 342.24 441.141 342.312 441.062C342.391 440.979 342.518 440.938 342.695 440.938H344.852V433.789H342.852C342.674 433.789 342.547 433.75 342.469 433.672C342.396 433.589 342.359 433.451 342.359 433.258C342.359 433.065 342.396 432.93 342.469 432.852C342.547 432.768 342.674 432.727 342.852 432.727H348.023ZM358.789 432.727C358.966 432.727 359.091 432.768 359.164 432.852C359.242 432.93 359.281 433.065 359.281 433.258C359.281 433.451 359.242 433.589 359.164 433.672C359.091 433.75 358.966 433.789 358.789 433.789H358.344V441.711C358.344 441.852 358.294 441.964 358.195 442.047C358.102 442.13 357.956 442.172 357.758 442.172C357.482 442.172 357.263 442.029 357.102 441.742L353.047 434.5H353.016V440.938H354.117C354.294 440.938 354.419 440.979 354.492 441.062C354.57 441.141 354.609 441.276 354.609 441.469C354.609 441.661 354.57 441.799 354.492 441.883C354.419 441.961 354.294 442 354.117 442H351.352C351.174 442 351.047 441.961 350.969 441.883C350.896 441.799 350.859 441.661 350.859 441.469C350.859 441.276 350.896 441.141 350.969 441.062C351.047 440.979 351.174 440.938 351.352 440.938H351.875V433.789H351.273C351.096 433.789 350.969 433.75 350.891 433.672C350.818 433.589 350.781 433.451 350.781 433.258C350.781 433.065 350.818 432.93 350.891 432.852C350.969 432.768 351.096 432.727 351.273 432.727H353.023C353.138 432.727 353.229 432.745 353.297 432.781C353.37 432.818 353.427 432.872 353.469 432.945L357.172 439.57H357.203V433.789H356.258C356.081 433.789 355.953 433.75 355.875 433.672C355.802 433.589 355.766 433.451 355.766 433.258C355.766 433.065 355.802 432.93 355.875 432.852C355.953 432.768 356.081 432.727 356.258 432.727H358.789ZM367.977 432.727C368.154 432.727 368.279 432.768 368.352 432.852C368.43 432.93 368.469 433.065 368.469 433.258V436.203C368.469 436.385 368.424 436.516 368.336 436.594C368.247 436.672 368.096 436.711 367.883 436.711C367.669 436.711 367.518 436.672 367.43 436.594C367.341 436.516 367.297 436.385 367.297 436.203V433.789H365.211V440.938H367.055C367.232 440.938 367.357 440.979 367.43 441.062C367.508 441.141 367.547 441.276 367.547 441.469C367.547 441.661 367.508 441.799 367.43 441.883C367.357 441.961 367.232 442 367.055 442H362.195C362.018 442 361.891 441.961 361.812 441.883C361.74 441.799 361.703 441.661 361.703 441.469C361.703 441.276 361.74 441.141 361.812 441.062C361.891 440.979 362.018 440.938 362.195 440.938H364.039V433.789H361.953V436.203C361.953 436.385 361.909 436.516 361.82 436.594C361.732 436.672 361.581 436.711 361.367 436.711C361.154 436.711 361.003 436.672 360.914 436.594C360.826 436.516 360.781 436.385 360.781 436.203V433.258C360.781 433.065 360.818 432.93 360.891 432.852C360.969 432.768 361.096 432.727 361.273 432.727H367.977ZM374.727 432.086C374.846 432.086 374.932 432.117 374.984 432.18C375.036 432.242 375.057 432.341 375.047 432.477L374.664 438C374.654 438.12 374.609 438.214 374.531 438.281C374.458 438.344 374.354 438.375 374.219 438.375C374.083 438.375 373.974 438.344 373.891 438.281C373.812 438.214 373.771 438.12 373.766 438L373.391 432.477C373.38 432.341 373.401 432.242 373.453 432.18C373.505 432.117 373.591 432.086 373.711 432.086H374.727ZM374.219 439.891C374.562 439.891 374.81 439.93 374.961 440.008C375.117 440.081 375.195 440.206 375.195 440.383V441.586C375.195 441.763 375.117 441.891 374.961 441.969C374.81 442.042 374.562 442.078 374.219 442.078C373.875 442.078 373.625 442.042 373.469 441.969C373.318 441.891 373.242 441.763 373.242 441.586V440.383C373.242 440.206 373.318 440.081 373.469 440.008C373.625 439.93 373.875 439.891 374.219 439.891Z" fill="#00FF00" fill-opacity="0.3"/>
</g>
<defs>
<clipPath id="clip0_12_2">
<rect width="500" height="500" fill="white"/>
</clipPath>
</defs>
</svg>
