<svg width="500" height="500" viewBox="0 0 500 500" fill="none" xmlns="http://www.w3.org/2000/svg">
<path d="M55.3906 244.727C56.0833 244.727 56.6771 244.849 57.1719 245.094C57.6667 245.339 58.0417 245.685 58.2969 246.133C58.5573 246.581 58.6875 247.099 58.6875 247.688C58.6875 248.276 58.5573 248.792 58.2969 249.234C58.0417 249.672 57.6667 250.013 57.1719 250.258C56.6771 250.497 56.0833 250.617 55.3906 250.617H53.5547V252.938H55.4297C55.6068 252.938 55.7318 252.979 55.8047 253.062C55.8828 253.141 55.9219 253.276 55.9219 253.469C55.9219 253.661 55.8828 253.799 55.8047 253.883C55.7318 253.961 55.6068 254 55.4297 254H51.1172C50.9401 254 50.8125 253.961 50.7344 253.883C50.6615 253.799 50.625 253.661 50.625 253.469C50.625 253.276 50.6615 253.141 50.7344 253.062C50.8125 252.979 50.9401 252.938 51.1172 252.938H52.3828V245.789H51.1172C50.9401 245.789 50.8125 245.75 50.7344 245.672C50.6615 245.589 50.625 245.451 50.625 245.258C50.625 245.065 50.6615 244.93 50.7344 244.852C50.8125 244.768 50.9401 244.727 51.1172 244.727H55.3906ZM53.5547 249.555H55.2266C55.9505 249.555 56.5026 249.391 56.8828 249.062C57.263 248.734 57.4531 248.276 57.4531 247.688C57.4531 247.089 57.2604 246.622 56.875 246.289C56.4948 245.956 55.9453 245.789 55.2266 245.789H53.5547V249.555ZM65.0391 244.727C65.2161 244.727 65.3411 244.768 65.4141 244.852C65.4922 244.93 65.5312 245.065 65.5312 245.258C65.5312 245.451 65.4922 245.589 65.4141 245.672C65.3411 245.75 65.2161 245.789 65.0391 245.789H63.1484V252.938H67.0156V250.367C67.0156 250.185 67.0599 250.055 67.1484 249.977C67.237 249.898 67.388 249.859 67.6016 249.859C67.8151 249.859 67.9661 249.898 68.0547 249.977C68.1432 250.055 68.1875 250.185 68.1875 250.367V253.469C68.1875 253.661 68.1484 253.799 68.0703 253.883C67.9974 253.961 67.8724 254 67.6953 254H60.7109C60.5339 254 60.4062 253.961 60.3281 253.883C60.2552 253.799 60.2188 253.661 60.2188 253.469C60.2188 253.276 60.2552 253.141 60.3281 253.062C60.4062 252.979 60.5339 252.938 60.7109 252.938H61.9766V245.789H60.7109C60.5339 245.789 60.4062 245.75 60.3281 245.672C60.2552 245.589 60.2188 245.451 60.2188 245.258C60.2188 245.065 60.2552 244.93 60.3281 244.852C60.4062 244.768 60.5339 244.727 60.7109 244.727H65.0391ZM74.1875 244.727C74.3958 244.727 74.5625 244.768 74.6875 244.852C74.8177 244.93 74.9141 245.057 74.9766 245.234L77.7344 252.938H78.2109C78.388 252.938 78.513 252.979 78.5859 253.062C78.6641 253.141 78.7031 253.276 78.7031 253.469C78.7031 253.661 78.6641 253.799 78.5859 253.883C78.513 253.961 78.388 254 78.2109 254H75.4453C75.2682 254 75.1406 253.961 75.0625 253.883C74.9896 253.799 74.9531 253.661 74.9531 253.469C74.9531 253.276 74.9896 253.141 75.0625 253.062C75.1406 252.979 75.2682 252.938 75.4453 252.938H76.5L75.8594 251.078H72.0703L71.4219 252.938H72.3672C72.5443 252.938 72.6693 252.979 72.7422 253.062C72.8203 253.141 72.8594 253.276 72.8594 253.469C72.8594 253.661 72.8203 253.799 72.7422 253.883C72.6693 253.961 72.5443 254 72.3672 254H69.7578C69.5807 254 69.4531 253.961 69.375 253.883C69.3021 253.799 69.2656 253.661 69.2656 253.469C69.2656 253.276 69.3021 253.141 69.375 253.062C69.4531 252.979 69.5807 252.938 69.7578 252.938H70.1953L72.7812 245.789H71.3203C71.1432 245.789 71.0156 245.75 70.9375 245.672C70.8646 245.589 70.8281 245.451 70.8281 245.258C70.8281 245.065 70.8646 244.93 70.9375 244.852C71.0156 244.768 71.1432 244.727 71.3203 244.727H74.1875ZM73.8984 245.789L72.4375 250.016H75.5L74.0469 245.789H73.8984ZM87.4141 244.727C87.5911 244.727 87.7161 244.768 87.7891 244.852C87.8672 244.93 87.9062 245.065 87.9062 245.258C87.9062 245.451 87.8672 245.589 87.7891 245.672C87.7161 245.75 87.5911 245.789 87.4141 245.789H86.8828L84.1641 250.156V252.938H85.9297C86.1068 252.938 86.2318 252.979 86.3047 253.062C86.3828 253.141 86.4219 253.276 86.4219 253.469C86.4219 253.661 86.3828 253.799 86.3047 253.883C86.2318 253.961 86.1068 254 85.9297 254H81.2266C81.0495 254 80.9219 253.961 80.8438 253.883C80.7708 253.799 80.7344 253.661 80.7344 253.469C80.7344 253.276 80.7708 253.141 80.8438 253.062C80.9219 252.979 81.0495 252.938 81.2266 252.938H82.9922V250.156L80.2891 245.789H79.7422C79.5651 245.789 79.4375 245.75 79.3594 245.672C79.2865 245.589 79.25 245.451 79.25 245.258C79.25 245.065 79.2865 244.93 79.3594 244.852C79.4375 244.768 79.5651 244.727 79.7422 244.727H82.3516C82.5286 244.727 82.6536 244.768 82.7266 244.852C82.8047 244.93 82.8438 245.065 82.8438 245.258C82.8438 245.451 82.8047 245.589 82.7266 245.672C82.6536 245.75 82.5286 245.789 82.3516 245.789H81.625L83.5781 248.984L85.5469 245.789H85.0391C84.862 245.789 84.7344 245.75 84.6562 245.672C84.5833 245.589 84.5469 245.451 84.5469 245.258C84.5469 245.065 84.5833 244.93 84.6562 244.852C84.7344 244.768 84.862 244.727 85.0391 244.727H87.4141ZM96.3828 250.641C96.5964 250.641 96.7474 250.68 96.8359 250.758C96.9245 250.836 96.9688 250.966 96.9688 251.148V253.469C96.9688 253.661 96.9297 253.799 96.8516 253.883C96.7786 253.961 96.6536 254 96.4766 254H89.4922C89.3151 254 89.1875 253.961 89.1094 253.883C89.0365 253.799 89 253.661 89 253.469C89 253.276 89.0365 253.141 89.1094 253.062C89.1875 252.979 89.3151 252.938 89.4922 252.938H90.2891V245.789H89.4922C89.3151 245.789 89.1875 245.75 89.1094 245.672C89.0365 245.589 89 245.451 89 245.258C89 245.065 89.0365 244.93 89.1094 244.852C89.1875 244.768 89.3151 244.727 89.4922 244.727H96.3203C96.4974 244.727 96.6224 244.768 96.6953 244.852C96.7734 244.93 96.8125 245.065 96.8125 245.258V247.242C96.8125 247.424 96.7682 247.555 96.6797 247.633C96.5911 247.711 96.4401 247.75 96.2266 247.75C96.013 247.75 95.862 247.711 95.7734 247.633C95.6849 247.555 95.6406 247.424 95.6406 247.242V245.789H91.4609V248.688H93.4766V247.977C93.4766 247.794 93.5156 247.664 93.5938 247.586C93.6771 247.508 93.8229 247.469 94.0312 247.469C94.2396 247.469 94.3828 247.508 94.4609 247.586C94.5443 247.664 94.5859 247.794 94.5859 247.977V250.461C94.5859 250.643 94.5443 250.773 94.4609 250.852C94.3828 250.93 94.2396 250.969 94.0312 250.969C93.8229 250.969 93.6771 250.93 93.5938 250.852C93.5156 250.773 93.4766 250.643 93.4766 250.461V249.75H91.4609V252.938H95.7969V251.148C95.7969 250.966 95.8411 250.836 95.9297 250.758C96.0182 250.68 96.1693 250.641 96.3828 250.641ZM103.039 244.727C103.69 244.727 104.247 244.836 104.711 245.055C105.18 245.273 105.534 245.581 105.773 245.977C106.018 246.372 106.141 246.833 106.141 247.359C106.141 247.953 105.948 248.456 105.562 248.867C105.177 249.279 104.648 249.56 103.977 249.711C104.268 249.826 104.51 250.01 104.703 250.266C104.865 250.479 105.003 250.693 105.117 250.906C105.232 251.115 105.359 251.372 105.5 251.68C105.646 251.997 105.758 252.229 105.836 252.375C106.039 252.75 106.273 252.938 106.539 252.938H106.758C106.935 252.938 107.06 252.979 107.133 253.062C107.211 253.141 107.25 253.276 107.25 253.469C107.25 253.661 107.211 253.799 107.133 253.883C107.06 253.961 106.935 254 106.758 254H106.195C105.883 254 105.617 253.919 105.398 253.758C105.185 253.591 104.977 253.31 104.773 252.914C104.659 252.685 104.518 252.383 104.352 252.008C104.195 251.664 104.068 251.398 103.969 251.211C103.875 251.018 103.76 250.828 103.625 250.641C103.469 250.422 103.281 250.258 103.062 250.148C102.844 250.034 102.581 249.977 102.273 249.977H101.211V252.938H102.227C102.404 252.938 102.529 252.979 102.602 253.062C102.68 253.141 102.719 253.276 102.719 253.469C102.719 253.661 102.68 253.799 102.602 253.883C102.529 253.961 102.404 254 102.227 254H99.0859C98.9089 254 98.7812 253.961 98.7031 253.883C98.6302 253.799 98.5938 253.661 98.5938 253.469C98.5938 253.276 98.6302 253.141 98.7031 253.062C98.7812 252.979 98.9089 252.938 99.0859 252.938H100.039V245.789H99.0859C98.9089 245.789 98.7812 245.75 98.7031 245.672C98.6302 245.589 98.5938 245.451 98.5938 245.258C98.5938 245.065 98.6302 244.93 98.7031 244.852C98.7812 244.768 98.9089 244.727 99.0859 244.727H103.039ZM101.211 248.914H102.797C104.203 248.914 104.906 248.396 104.906 247.359C104.906 246.859 104.729 246.474 104.375 246.203C104.021 245.927 103.521 245.789 102.875 245.789H101.211V248.914Z" fill="#00FF00" fill-opacity="0.3"/>
<path d="M409.742 244.555C409.956 244.555 410.107 244.594 410.195 244.672C410.284 244.75 410.328 244.88 410.328 245.062V247.328C410.328 247.51 410.284 247.641 410.195 247.719C410.107 247.797 409.956 247.836 409.742 247.836C409.529 247.836 409.378 247.797 409.289 247.719C409.201 247.641 409.156 247.51 409.156 247.328C409.156 247.016 409.07 246.737 408.898 246.492C408.732 246.247 408.484 246.057 408.156 245.922C407.828 245.781 407.438 245.711 406.984 245.711C406.406 245.711 405.893 245.859 405.445 246.156C405.003 246.453 404.656 246.878 404.406 247.43C404.156 247.982 404.031 248.628 404.031 249.367C404.031 250.107 404.148 250.753 404.383 251.305C404.622 251.852 404.958 252.273 405.391 252.57C405.828 252.867 406.333 253.016 406.906 253.016C407.818 253.016 408.596 252.867 409.242 252.57V250.797H407.312C407.135 250.797 407.008 250.758 406.93 250.68C406.857 250.596 406.82 250.458 406.82 250.266C406.82 250.073 406.857 249.938 406.93 249.859C407.008 249.776 407.135 249.734 407.312 249.734H410.664C410.841 249.734 410.966 249.776 411.039 249.859C411.117 249.938 411.156 250.073 411.156 250.266C411.156 250.458 411.117 250.596 411.039 250.68C410.966 250.758 410.841 250.797 410.664 250.797H410.414V252.883C410.414 253.138 410.32 253.318 410.133 253.422C409.706 253.667 409.214 253.854 408.656 253.984C408.099 254.109 407.516 254.172 406.906 254.172C406.094 254.172 405.375 253.974 404.75 253.578C404.13 253.177 403.648 252.615 403.305 251.891C402.966 251.161 402.797 250.32 402.797 249.367C402.797 248.419 402.971 247.581 403.32 246.852C403.674 246.122 404.161 245.557 404.781 245.156C405.406 244.755 406.115 244.555 406.906 244.555C407.396 244.555 407.828 244.633 408.203 244.789C408.583 244.94 408.901 245.159 409.156 245.445V245.062C409.156 244.88 409.201 244.75 409.289 244.672C409.378 244.594 409.529 244.555 409.742 244.555ZM420.18 244.727C420.357 244.727 420.482 244.768 420.555 244.852C420.633 244.93 420.672 245.065 420.672 245.258C420.672 245.451 420.633 245.589 420.555 245.672C420.482 245.75 420.357 245.789 420.18 245.789H419.695V250.93C419.695 252.018 419.409 252.831 418.836 253.367C418.268 253.904 417.464 254.172 416.422 254.172C415.38 254.172 414.573 253.904 414 253.367C413.432 252.831 413.148 252.018 413.148 250.93V245.789H412.664C412.487 245.789 412.359 245.75 412.281 245.672C412.208 245.589 412.172 245.451 412.172 245.258C412.172 245.065 412.208 244.93 412.281 244.852C412.359 244.768 412.487 244.727 412.664 244.727H415.195C415.372 244.727 415.497 244.768 415.57 244.852C415.648 244.93 415.688 245.065 415.688 245.258C415.688 245.451 415.648 245.589 415.57 245.672C415.497 245.75 415.372 245.789 415.195 245.789H414.32V250.773C414.32 251.57 414.49 252.143 414.828 252.492C415.167 252.841 415.698 253.016 416.422 253.016C417.146 253.016 417.677 252.841 418.016 252.492C418.354 252.143 418.523 251.57 418.523 250.773V245.789H417.648C417.471 245.789 417.344 245.75 417.266 245.672C417.193 245.589 417.156 245.451 417.156 245.258C417.156 245.065 417.193 244.93 417.266 244.852C417.344 244.768 417.471 244.727 417.648 244.727H420.18ZM429.227 250.641C429.44 250.641 429.591 250.68 429.68 250.758C429.768 250.836 429.812 250.966 429.812 251.148V253.469C429.812 253.661 429.773 253.799 429.695 253.883C429.622 253.961 429.497 254 429.32 254H422.336C422.159 254 422.031 253.961 421.953 253.883C421.88 253.799 421.844 253.661 421.844 253.469C421.844 253.276 421.88 253.141 421.953 253.062C422.031 252.979 422.159 252.938 422.336 252.938H423.133V245.789H422.336C422.159 245.789 422.031 245.75 421.953 245.672C421.88 245.589 421.844 245.451 421.844 245.258C421.844 245.065 421.88 244.93 421.953 244.852C422.031 244.768 422.159 244.727 422.336 244.727H429.164C429.341 244.727 429.466 244.768 429.539 244.852C429.617 244.93 429.656 245.065 429.656 245.258V247.242C429.656 247.424 429.612 247.555 429.523 247.633C429.435 247.711 429.284 247.75 429.07 247.75C428.857 247.75 428.706 247.711 428.617 247.633C428.529 247.555 428.484 247.424 428.484 247.242V245.789H424.305V248.688H426.32V247.977C426.32 247.794 426.359 247.664 426.438 247.586C426.521 247.508 426.667 247.469 426.875 247.469C427.083 247.469 427.227 247.508 427.305 247.586C427.388 247.664 427.43 247.794 427.43 247.977V250.461C427.43 250.643 427.388 250.773 427.305 250.852C427.227 250.93 427.083 250.969 426.875 250.969C426.667 250.969 426.521 250.93 426.438 250.852C426.359 250.773 426.32 250.643 426.32 250.461V249.75H424.305V252.938H428.641V251.148C428.641 250.966 428.685 250.836 428.773 250.758C428.862 250.68 429.013 250.641 429.227 250.641ZM438.18 244.555C438.393 244.555 438.544 244.594 438.633 244.672C438.721 244.75 438.766 244.88 438.766 245.062V246.859C438.766 247.042 438.721 247.172 438.633 247.25C438.544 247.328 438.393 247.367 438.18 247.367C437.982 247.367 437.846 247.299 437.773 247.164C437.523 246.69 437.172 246.331 436.719 246.086C436.266 245.836 435.75 245.711 435.172 245.711C434.599 245.711 434.154 245.844 433.836 246.109C433.523 246.375 433.367 246.732 433.367 247.18C433.367 247.393 433.422 247.573 433.531 247.719C433.641 247.865 433.797 247.99 434 248.094C434.182 248.188 434.396 248.266 434.641 248.328C434.885 248.385 435.214 248.453 435.625 248.531C436.073 248.62 436.427 248.695 436.688 248.758C436.953 248.815 437.214 248.896 437.469 249C437.99 249.214 438.396 249.513 438.688 249.898C438.984 250.279 439.133 250.794 439.133 251.445C439.133 251.987 439.005 252.464 438.75 252.875C438.495 253.281 438.117 253.599 437.617 253.828C437.122 254.057 436.526 254.172 435.828 254.172C435.307 254.172 434.823 254.078 434.375 253.891C433.932 253.698 433.547 253.419 433.219 253.055V253.664C433.219 253.846 433.174 253.977 433.086 254.055C432.997 254.133 432.846 254.172 432.633 254.172C432.419 254.172 432.268 254.133 432.18 254.055C432.091 253.977 432.047 253.846 432.047 253.664V251.32C432.047 251.138 432.091 251.008 432.18 250.93C432.268 250.852 432.419 250.812 432.633 250.812C432.857 250.812 433.008 250.922 433.086 251.141C433.299 251.745 433.638 252.208 434.102 252.531C434.57 252.854 435.146 253.016 435.828 253.016C436.495 253.016 437.005 252.872 437.359 252.586C437.719 252.299 437.898 251.919 437.898 251.445C437.898 251.117 437.815 250.852 437.648 250.648C437.487 250.44 437.25 250.268 436.938 250.133C436.74 250.044 436.523 249.974 436.289 249.922C436.055 249.865 435.734 249.794 435.328 249.711C434.901 249.628 434.542 249.549 434.25 249.477C433.964 249.404 433.698 249.312 433.453 249.203C433.036 249.016 432.711 248.763 432.477 248.445C432.247 248.122 432.133 247.701 432.133 247.18C432.133 246.643 432.26 246.177 432.516 245.781C432.776 245.385 433.135 245.083 433.594 244.875C434.057 244.661 434.583 244.555 435.172 244.555C435.63 244.555 436.073 244.643 436.5 244.82C436.927 244.997 437.292 245.237 437.594 245.539V245.062C437.594 244.88 437.638 244.75 437.727 244.672C437.815 244.594 437.966 244.555 438.18 244.555ZM448.555 244.727C448.732 244.727 448.857 244.768 448.93 244.852C449.008 244.93 449.047 245.065 449.047 245.258V248.203C449.047 248.385 449.003 248.516 448.914 248.594C448.826 248.672 448.674 248.711 448.461 248.711C448.247 248.711 448.096 248.672 448.008 248.594C447.919 248.516 447.875 248.385 447.875 248.203V245.789H445.789V252.938H447.633C447.81 252.938 447.935 252.979 448.008 253.062C448.086 253.141 448.125 253.276 448.125 253.469C448.125 253.661 448.086 253.799 448.008 253.883C447.935 253.961 447.81 254 447.633 254H442.773C442.596 254 442.469 253.961 442.391 253.883C442.318 253.799 442.281 253.661 442.281 253.469C442.281 253.276 442.318 253.141 442.391 253.062C442.469 252.979 442.596 252.938 442.773 252.938H444.617V245.789H442.531V248.203C442.531 248.385 442.487 248.516 442.398 248.594C442.31 248.672 442.159 248.711 441.945 248.711C441.732 248.711 441.581 248.672 441.492 248.594C441.404 248.516 441.359 248.385 441.359 248.203V245.258C441.359 245.065 441.396 244.93 441.469 244.852C441.547 244.768 441.674 244.727 441.852 244.727H448.555Z" fill="#00FF00" fill-opacity="0.3"/>
<line x1="249.5" y1="175" x2="249.5" stroke="#00FF00" stroke-opacity="0.1"/>
<line x1="249.5" y1="500" x2="249.5" y2="325" stroke="#00FF00" stroke-opacity="0.1"/>
<line x1="325" y1="250.5" x2="175" y2="250.5" stroke="#00FF00" stroke-opacity="0.1"/>
<circle cx="250" cy="250" r="74.5" stroke="#00FF00" stroke-opacity="0.1"/>
</svg>
