<svg width="500" height="500" viewBox="0 0 500 500" fill="none" xmlns="http://www.w3.org/2000/svg">
<g clip-path="url(#clip0_9_2)">
<path d="M41 239.727C41.6927 239.727 42.2865 239.849 42.7812 240.094C43.276 240.339 43.651 240.685 43.9062 241.133C44.1667 241.581 44.2969 242.099 44.2969 242.688C44.2969 243.276 44.1667 243.792 43.9062 244.234C43.651 244.672 43.276 245.013 42.7812 245.258C42.2865 245.497 41.6927 245.617 41 245.617H39.1641V247.938H41.0391C41.2161 247.938 41.3411 247.979 41.4141 248.062C41.4922 248.141 41.5312 248.276 41.5312 248.469C41.5312 248.661 41.4922 248.799 41.4141 248.883C41.3411 248.961 41.2161 249 41.0391 249H36.7266C36.5495 249 36.4219 248.961 36.3438 248.883C36.2708 248.799 36.2344 248.661 36.2344 248.469C36.2344 248.276 36.2708 248.141 36.3438 248.062C36.4219 247.979 36.5495 247.938 36.7266 247.938H37.9922V240.789H36.7266C36.5495 240.789 36.4219 240.75 36.3438 240.672C36.2708 240.589 36.2344 240.451 36.2344 240.258C36.2344 240.065 36.2708 239.93 36.3438 239.852C36.4219 239.768 36.5495 239.727 36.7266 239.727H41ZM39.1641 244.555H40.8359C41.5599 244.555 42.112 244.391 42.4922 244.062C42.8724 243.734 43.0625 243.276 43.0625 242.688C43.0625 242.089 42.8698 241.622 42.4844 241.289C42.1042 240.956 41.5547 240.789 40.8359 240.789H39.1641V244.555ZM54.8359 250.969C54.8984 250.969 54.9427 251.003 54.9688 251.07C55 251.138 55.0156 251.281 55.0156 251.5C55.0156 251.719 55 251.862 54.9688 251.93C54.9427 251.997 54.8984 252.031 54.8359 252.031H45.1641C45.1016 252.031 45.0573 251.997 45.0312 251.93C45 251.862 44.9844 251.719 44.9844 251.5C44.9844 251.281 45 251.138 45.0312 251.07C45.0573 251.003 45.1016 250.969 45.1641 250.969H54.8359ZM62.4062 247.938C62.5833 247.938 62.7083 247.979 62.7812 248.062C62.8594 248.141 62.8984 248.276 62.8984 248.469C62.8984 248.661 62.8594 248.799 62.7812 248.883C62.7083 248.961 62.5833 249 62.4062 249H57.1406C56.9635 249 56.8359 248.961 56.7578 248.883C56.6849 248.799 56.6484 248.661 56.6484 248.469C56.6484 248.276 56.6849 248.141 56.7578 248.062C56.8359 247.979 56.9635 247.938 57.1406 247.938H59.2422V241.234L57.2969 242.445C57.2083 242.497 57.1276 242.523 57.0547 242.523C56.888 242.523 56.7448 242.417 56.625 242.203C56.5521 242.078 56.5156 241.958 56.5156 241.844C56.5156 241.667 56.5964 241.531 56.7578 241.438L59.7031 239.625C59.8073 239.562 59.9115 239.531 60.0156 239.531C60.1302 239.531 60.224 239.57 60.2969 239.648C60.375 239.721 60.4141 239.826 60.4141 239.961V247.938H62.4062Z" fill="#00FF00" fill-opacity="0.3"/>
<path d="M241 44.7266C241.693 44.7266 242.286 44.849 242.781 45.0938C243.276 45.3385 243.651 45.6849 243.906 46.1328C244.167 46.5807 244.297 47.099 244.297 47.6875C244.297 48.276 244.167 48.7917 243.906 49.2344C243.651 49.6719 243.276 50.013 242.781 50.2578C242.286 50.4974 241.693 50.6172 241 50.6172H239.164V52.9375H241.039C241.216 52.9375 241.341 52.9792 241.414 53.0625C241.492 53.1406 241.531 53.276 241.531 53.4688C241.531 53.6615 241.492 53.7995 241.414 53.8828C241.341 53.9609 241.216 54 241.039 54H236.727C236.549 54 236.422 53.9609 236.344 53.8828C236.271 53.7995 236.234 53.6615 236.234 53.4688C236.234 53.276 236.271 53.1406 236.344 53.0625C236.422 52.9792 236.549 52.9375 236.727 52.9375H237.992V45.7891H236.727C236.549 45.7891 236.422 45.75 236.344 45.6719C236.271 45.5885 236.234 45.4505 236.234 45.2578C236.234 45.0651 236.271 44.9297 236.344 44.8516C236.422 44.7682 236.549 44.7266 236.727 44.7266H241ZM239.164 49.5547H240.836C241.56 49.5547 242.112 49.3906 242.492 49.0625C242.872 48.7344 243.062 48.276 243.062 47.6875C243.062 47.0885 242.87 46.6224 242.484 46.2891C242.104 45.9557 241.555 45.7891 240.836 45.7891H239.164V49.5547ZM254.836 55.9688C254.898 55.9688 254.943 56.0026 254.969 56.0703C255 56.138 255.016 56.2812 255.016 56.5C255.016 56.7188 255 56.862 254.969 56.9297C254.943 56.9974 254.898 57.0312 254.836 57.0312H245.164C245.102 57.0312 245.057 56.9974 245.031 56.9297C245 56.862 244.984 56.7188 244.984 56.5C244.984 56.2812 245 56.138 245.031 56.0703C245.057 56.0026 245.102 55.9688 245.164 55.9688H254.836ZM259.328 44.5547C259.932 44.5547 260.461 44.6641 260.914 44.8828C261.372 45.0964 261.727 45.4089 261.977 45.8203C262.227 46.2318 262.352 46.7214 262.352 47.2891C262.352 47.8203 262.219 48.3099 261.953 48.7578C261.693 49.2005 261.284 49.7057 260.727 50.2734L258.102 52.9375H261.492V51.9531C261.492 51.7708 261.536 51.6406 261.625 51.5625C261.714 51.4844 261.865 51.4453 262.078 51.4453C262.292 51.4453 262.443 51.4844 262.531 51.5625C262.62 51.6406 262.664 51.7708 262.664 51.9531V53.4688C262.664 53.6615 262.625 53.7995 262.547 53.8828C262.474 53.9609 262.349 54 262.172 54H256.75C256.573 54 256.445 53.9609 256.367 53.8828C256.294 53.7995 256.258 53.6615 256.258 53.4688C256.258 53.2708 256.297 53.1302 256.375 53.0469L259.812 49.5625C260.292 49.0729 260.628 48.6667 260.82 48.3438C261.018 48.0156 261.117 47.6641 261.117 47.2891C261.117 46.8047 260.961 46.4219 260.648 46.1406C260.341 45.8542 259.904 45.7109 259.336 45.7109C258.763 45.7109 258.224 45.8568 257.719 46.1484V47.0078C257.719 47.1901 257.674 47.3203 257.586 47.3984C257.497 47.4766 257.346 47.5156 257.133 47.5156C256.919 47.5156 256.768 47.4766 256.68 47.3984C256.591 47.3203 256.547 47.1901 256.547 47.0078V45.8594C256.547 45.6562 256.607 45.513 256.727 45.4297C257.107 45.1536 257.518 44.9401 257.961 44.7891C258.404 44.6328 258.859 44.5547 259.328 44.5547Z" fill="#00FF00" fill-opacity="0.3"/>
<path d="M241 444.727C241.693 444.727 242.286 444.849 242.781 445.094C243.276 445.339 243.651 445.685 243.906 446.133C244.167 446.581 244.297 447.099 244.297 447.688C244.297 448.276 244.167 448.792 243.906 449.234C243.651 449.672 243.276 450.013 242.781 450.258C242.286 450.497 241.693 450.617 241 450.617H239.164V452.938H241.039C241.216 452.938 241.341 452.979 241.414 453.062C241.492 453.141 241.531 453.276 241.531 453.469C241.531 453.661 241.492 453.799 241.414 453.883C241.341 453.961 241.216 454 241.039 454H236.727C236.549 454 236.422 453.961 236.344 453.883C236.271 453.799 236.234 453.661 236.234 453.469C236.234 453.276 236.271 453.141 236.344 453.062C236.422 452.979 236.549 452.938 236.727 452.938H237.992V445.789H236.727C236.549 445.789 236.422 445.75 236.344 445.672C236.271 445.589 236.234 445.451 236.234 445.258C236.234 445.065 236.271 444.93 236.344 444.852C236.422 444.768 236.549 444.727 236.727 444.727H241ZM239.164 449.555H240.836C241.56 449.555 242.112 449.391 242.492 449.062C242.872 448.734 243.062 448.276 243.062 447.688C243.062 447.089 242.87 446.622 242.484 446.289C242.104 445.956 241.555 445.789 240.836 445.789H239.164V449.555ZM254.836 455.969C254.898 455.969 254.943 456.003 254.969 456.07C255 456.138 255.016 456.281 255.016 456.5C255.016 456.719 255 456.862 254.969 456.93C254.943 456.997 254.898 457.031 254.836 457.031H245.164C245.102 457.031 245.057 456.997 245.031 456.93C245 456.862 244.984 456.719 244.984 456.5C244.984 456.281 245 456.138 245.031 456.07C245.057 456.003 245.102 455.969 245.164 455.969H254.836ZM259.406 444.555C260.005 444.555 260.529 444.661 260.977 444.875C261.424 445.083 261.771 445.383 262.016 445.773C262.26 446.159 262.383 446.612 262.383 447.133C262.383 447.581 262.279 447.969 262.07 448.297C261.862 448.62 261.568 448.878 261.188 449.07C261.661 449.268 262.029 449.557 262.289 449.938C262.555 450.318 262.688 450.773 262.688 451.305C262.688 451.872 262.56 452.372 262.305 452.805C262.055 453.237 261.688 453.573 261.203 453.812C260.719 454.052 260.141 454.172 259.469 454.172C258.958 454.172 258.443 454.083 257.922 453.906C257.401 453.729 256.935 453.49 256.523 453.188C256.367 453.073 256.289 452.943 256.289 452.797C256.289 452.693 256.333 452.565 256.422 452.414C256.557 452.195 256.708 452.086 256.875 452.086C256.958 452.086 257.047 452.12 257.141 452.188C257.484 452.443 257.857 452.646 258.258 452.797C258.659 452.943 259.062 453.016 259.469 453.016C260.115 453.016 260.607 452.865 260.945 452.562C261.284 452.255 261.453 451.836 261.453 451.305C261.453 450.768 261.281 450.362 260.938 450.086C260.599 449.805 260.122 449.664 259.508 449.664H258.938C258.76 449.664 258.633 449.625 258.555 449.547C258.482 449.464 258.445 449.326 258.445 449.133C258.445 448.94 258.482 448.805 258.555 448.727C258.633 448.643 258.76 448.602 258.938 448.602H259.367C259.961 448.602 260.411 448.477 260.719 448.227C261.026 447.977 261.18 447.612 261.18 447.133C261.18 446.69 261.026 446.344 260.719 446.094C260.411 445.839 259.977 445.711 259.414 445.711C258.81 445.711 258.297 445.812 257.875 446.016V446.539C257.875 446.721 257.831 446.852 257.742 446.93C257.654 447.008 257.503 447.047 257.289 447.047C257.076 447.047 256.924 447.008 256.836 446.93C256.747 446.852 256.703 446.721 256.703 446.539V445.688C256.703 445.573 256.719 445.482 256.75 445.414C256.786 445.346 256.841 445.289 256.914 445.242C257.659 444.784 258.49 444.555 259.406 444.555Z" fill="#00FF00" fill-opacity="0.3"/>
<path d="M441 239.727C441.693 239.727 442.286 239.849 442.781 240.094C443.276 240.339 443.651 240.685 443.906 241.133C444.167 241.581 444.297 242.099 444.297 242.688C444.297 243.276 444.167 243.792 443.906 244.234C443.651 244.672 443.276 245.013 442.781 245.258C442.286 245.497 441.693 245.617 441 245.617H439.164V247.938H441.039C441.216 247.938 441.341 247.979 441.414 248.062C441.492 248.141 441.531 248.276 441.531 248.469C441.531 248.661 441.492 248.799 441.414 248.883C441.341 248.961 441.216 249 441.039 249H436.727C436.549 249 436.422 248.961 436.344 248.883C436.271 248.799 436.234 248.661 436.234 248.469C436.234 248.276 436.271 248.141 436.344 248.062C436.422 247.979 436.549 247.938 436.727 247.938H437.992V240.789H436.727C436.549 240.789 436.422 240.75 436.344 240.672C436.271 240.589 436.234 240.451 436.234 240.258C436.234 240.065 436.271 239.93 436.344 239.852C436.422 239.768 436.549 239.727 436.727 239.727H441ZM439.164 244.555H440.836C441.56 244.555 442.112 244.391 442.492 244.062C442.872 243.734 443.062 243.276 443.062 242.688C443.062 242.089 442.87 241.622 442.484 241.289C442.104 240.956 441.555 240.789 440.836 240.789H439.164V244.555ZM454.836 250.969C454.898 250.969 454.943 251.003 454.969 251.07C455 251.138 455.016 251.281 455.016 251.5C455.016 251.719 455 251.862 454.969 251.93C454.943 251.997 454.898 252.031 454.836 252.031H445.164C445.102 252.031 445.057 251.997 445.031 251.93C445 251.862 444.984 251.719 444.984 251.5C444.984 251.281 445 251.138 445.031 251.07C445.057 251.003 445.102 250.969 445.164 250.969H454.836ZM460.664 239.555C461.117 239.555 461.344 239.758 461.344 240.164V245.125H462.609C462.786 245.125 462.911 245.167 462.984 245.25C463.062 245.328 463.102 245.464 463.102 245.656C463.102 245.849 463.062 245.987 462.984 246.07C462.911 246.148 462.786 246.188 462.609 246.188H461.344V247.938H462.375C462.552 247.938 462.677 247.979 462.75 248.062C462.828 248.141 462.867 248.276 462.867 248.469C462.867 248.661 462.828 248.799 462.75 248.883C462.677 248.961 462.552 249 462.375 249H459.016C458.839 249 458.711 248.961 458.633 248.883C458.56 248.799 458.523 248.661 458.523 248.469C458.523 248.276 458.56 248.141 458.633 248.062C458.711 247.979 458.839 247.938 459.016 247.938H460.172V246.188H456.438C456.26 246.188 456.133 246.148 456.055 246.07C455.982 245.987 455.945 245.849 455.945 245.656C455.945 245.484 455.971 245.362 456.023 245.289L459.805 240.031C459.919 239.87 460.042 239.75 460.172 239.672C460.302 239.594 460.466 239.555 460.664 239.555ZM457.5 245.125H460.172L460.234 241.25L457.5 245.125Z" fill="#00FF00" fill-opacity="0.3"/>
<line x1="0.353553" y1="-0.353553" x2="500.354" y2="499.646" stroke="#00FF00" stroke-opacity="0.1"/>
<line x1="-0.353553" y1="499.646" x2="499.646" y2="-0.353566" stroke="#00FF00" stroke-opacity="0.1"/>
</g>
<defs>
<clipPath id="clip0_9_2">
<rect width="500" height="500" fill="white"/>
</clipPath>
</defs>
</svg>
